<svg xmlns="http://www.w3.org/2000/svg" viewBox="0 0 365.5 365.5"><defs><style>.cls-1{fill:#fff;}</style></defs><title>Asset 2</title><g id="Layer_2" data-name="Layer 2"><g id="Layer_1-2" data-name="Layer 1"><path class="cls-1" d="M312,53.52A182.78,182.78,0,1,0,365.5,182.75,182.26,182.26,0,0,0,312,53.52ZM289.62,234.7a4,4,0,0,1-5.82,3.57c-8.55-4.4-25.43-11.7-43.34-11.7-25.65,0-86.57,28.85-118.63,28.85-21.55,0-34.89-7.72-41.32-12.79A12.25,12.25,0,0,1,75.88,233V135a4,4,0,0,1,6.36-3.24c7,5,19.81,11.49,39.59,11.49,32.06,0,96.19-33.13,121.84-33.13,18.1,0,33.54,9.58,41.06,15.22a12.24,12.24,0,0,1,4.89,9.83Z"/></g></g></svg>