<?xml version="1.0" encoding="utf-8"?>
<!-- Generator: Adobe Illustrator 22.1.0, SVG Export Plug-In . SVG Version: 6.00 Build 0)  -->
<svg version="1.1" id="Layer_1" xmlns="http://www.w3.org/2000/svg" xmlns:xlink="http://www.w3.org/1999/xlink" x="0px" y="0px"
	 viewBox="0 0 1280 1024" style="enable-background:new 0 0 1280 1024;" xml:space="preserve">
<style type="text/css">
	.st0{fill:#DEE6F3;}
</style>
<title>HCM-BADGEArtboard 1</title>
<path class="st0" d="M442.8,318.9L418,335.9c16.3,24,41.2,40.9,69.5,47.3l6.6-29.3C473.2,349.1,454.9,336.7,442.8,318.9z M597,258.1
	l29.7-4.5c-4.3-28.7-19.4-54.6-42.1-72.6l-18.7,23.5C582.7,217.8,593.8,236.9,597,258.1z M513,186c14.9,0,29.5,3.9,42.3,11.3l15-26
	c-25.2-14.4-54.8-18.9-83.1-12.4l6.7,29.2C500.2,186.7,506.6,186,513,186z M156,457.1h-15.1v15.1H156V457.1z M583.9,538v-19.6h19.6
	v-5.8h-19.6V493h-5.8v19.6h-19.6v5.8h19.6V538H583.9z M428,271c0-8.5,1.2-16.9,3.7-25l-28.7-8.8c-8.5,27.7-6.2,57.6,6.4,83.8
	l27-13.1C430.8,296.4,428,283.8,428,271z M481.8,191.9l-11-27.9c-27,10.6-49,31.1-61.5,57.2l27,13
	C445.6,214.9,461.8,199.8,481.8,191.9z M598,271c0,21.4-8.1,42.1-22.7,57.8l22,20.4C617.1,328,628,300,628,271v-0.2h-30V271z
	 M156,499.8h-15.1v15.1H156V499.8z M156,542.4h-15.1v15.1H156V542.4z M156,585.1h-15.1v15.2H156V585.1z M605.9,829h-5.8v19.6h-19.6
	v5.8h19.6V874h5.8v-19.6h19.6v-5.8h-19.6V829z M328.9,320h-5.8v19.6h-19.6v5.8h19.6V365h5.8v-19.6h19.6v-5.8h-19.6L328.9,320z
	 M156,627.7h-15.1v15.2H156V627.7z M566,337.5c-15,12.1-33.7,18.6-53,18.5c-2.1,0-4.2-0.1-6.3-0.2l-2.2,29.9
	c2.8,0.2,5.7,0.3,8.5,0.3c26.1,0,51.4-8.9,71.7-25.1L566,337.5z M897.6,996.6h15.2v-15.1h-15.2V996.6z M923,677
	c-49.7,0-90,40.3-90,90s40.3,90,90,90s90-40.3,90-90l0,0C1012.9,717.3,972.7,677.1,923,677z M923,827c-33.1,0-60-26.9-60-60
	s26.9-60,60-60s60,26.9,60,60C983,800.1,956.1,827,923,827z M952.2,911.3h15.2v-15.2h-15.2V911.3z M897.6,953.9h15.2v-15.1h-15.2
	V953.9z M952.2,996.6h15.2v-15.1h-15.2V996.6z M101,737c-35,0-69.5,7.8-101,23v264h327.7c4.2-17.7,6.3-35.8,6.3-54
	C334,841.3,229.7,737,101,737z M952.2,953.9h15.2v-15.1h-15.2V953.9z M156,363.7h-15.1v15.1H156V363.7z M843,996.6h15.2v-15.1H843
	V996.6z M907.1,416h5.8v-19.6h19.6v-5.8h-19.6V371h-5.8v19.6h-19.6v5.8h19.6V416z M1006.8,996.6h15.2v-15.1h-15.2V996.6z
	 M1006.8,953.9h15.2v-15.1h-15.2V953.9z M843,953.9h15.2v-15.1H843V953.9z M843,911.3h15.2v-15.2H843V911.3z M897.6,911.3h15.2
	v-15.2h-15.2V911.3z M1006.8,911.3h15.2v-15.2h-15.2V911.3z M46.8,278.4H31.6v15.1h15.1V278.4z M46.8,627.7H31.6v15.2h15.1V627.7z
	 M46.8,235.7H31.6v15.1h15.1V235.7z M46.8,193.1H31.6v15.1h15.1V193.1z M1256.6,981.5l-38.5-36.4h-18.2v71.6h21.9v-35l38.5,36.3
	h18.2v-72.9h-21.9V981.5z M1172.5,932.9h106v-27.6h-106V932.9z M46.8,321.1H31.6v15.1h15.1V321.1z M46.8,457.1H31.6v15.1h15.1V457.1
	z M46.8,363.7H31.6v15.1h15.1V363.7z M156,321.1h-15.1v15.1H156V321.1z M1278.5,379h-28.3v28.8h28.3V379z M1209,121
	c27.3,0,53.2,11.8,71,32.5v-40.1c-56.1-39.3-133.4-25.6-172.7,30.5c-39.3,56.1-25.6,133.4,30.5,172.7c42.7,29.9,99.5,29.9,142.2,0
	v-40.1c-34,39.2-93.4,43.5-132.6,9.5s-43.5-93.4-9.5-132.6C1155.8,132.8,1181.7,121,1209,121z M1262.3,416.3l-13.3,18.4
	c5.1,4.4,8.1,8.6,8.1,15.1c0,9.3-7.7,15.7-17.9,15.7h-0.3c-9.6,0-17.4-6.5-17.4-15.4c0-6.7,3-10.9,8.3-14.7l-13.9-18.7
	c-10.6,6.7-17.6,17.4-17.6,33.5c0,24.8,18.7,42.1,41,42.1h0.3c20.5,0.1,37.9-15.2,40.4-35.6V445
	C1278.4,431.4,1271.7,422.6,1262.3,416.3z M46.8,499.8H31.6v15.1h15.1V499.8z M1253.9,500.5h-0.3c-15.2,0-20.6,12.4-25,27.9
	c-2.5,8.3-3.9,12.8-7,12.8h-0.3c-2.2,0-3.8-2.2-3.8-6.4c0-6.2,2.8-15.1,7.3-23.2l-17.4-9.4c-5.8,9-9.2,20.9-9.2,32.4
	c0,18.2,9.3,31.5,26,31.5h0.3c15.8,0,21.1-12.3,25.1-27.9c2.3-8.3,3.6-12.6,6.7-12.6h0.3c2.8,0,4.2,2.2,4.2,7c0,8.1-3.1,18-9,27
	l16.7,10.3c6.7-9.4,10.6-20.4,11.5-31.8v-10.3C1278.6,511.3,1269.7,500.5,1253.9,500.5z M1198.2,653.8c0,11,6,18.3,12.5,23.4h-10.7
	v27.6h78.6v-27.6h-42.7c-8.6,0-13.1-4.7-13.1-11.2s4.5-10.8,13.1-10.8h42.7v-27.6h-42.7c-8.6,0-13.1-4.8-13.1-11.3
	s4.5-10.8,13.1-10.8h42.7v-27.6h-51.6c-18.3,0-28.8,10.2-28.8,26.9c0,11.5,4.9,19.5,12.8,26.3
	C1202.8,635.4,1198.2,643.4,1198.2,653.8z M1268,834.2h10.4v-27.6h-106v27.6h37c-6,5.2-11.3,12.2-11.3,24.1
	c0,18.6,15.5,34.5,41.1,34.5h0.3c23.4,0,38.5-14,40.4-31v-7.4C1278.9,844.9,1273.8,839,1268,834.2z M1239.2,865.8h-0.2
	c-10.5,0-17.7-7.3-17.7-16.1s7.4-16,17.7-16h0.3c10.4,0,17.9,7.1,17.9,16S1249.7,865.8,1239.2,865.8L1239.2,865.8z M1270.3,746.2
	h8.1v-27.3h-45.2c-11,0-19.2,2.5-25,8.4c-6.2,6.2-9.6,15.8-9.6,29.9c-0.2,10.9,1.9,21.7,6.1,31.8l19.5-5.7
	c-2.9-6.8-4.4-14.2-4.4-21.6c0-10.6,4.7-15.7,12.8-15.7h1.3c-2,6.1-3,12.5-3,18.9c0,18.4,8.4,30.8,24.7,30.8h0.3
	c14.3,0,22.6-9.5,24-22.5v-8C1279.3,757.9,1275.9,751.1,1270.3,746.2L1270.3,746.2z M1254.3,769.1h-0.3c-5.8,0-9.7-4.7-9.7-12.6
	c0-3.7,0.7-7.3,2-10.8h3.7c7.8,0,12.9,5.7,12.9,13.7C1262.9,765.1,1259.7,769.1,1254.3,769.1L1254.3,769.1z M101.3,585.1H86.2v15.2
	h15.2L101.3,585.1z M101.3,627.7H86.2v15.2h15.2L101.3,627.7z M101.3,542.4H86.2v15.1h15.2L101.3,542.4z M46.8,585.1H31.6v15.2h15.1
	V585.1z M156,278.4h-15.1v15.1H156V278.4z M101.4,499.8H86.2v15.1h15.2L101.4,499.8z M156,235.8h-15.1v15.1H156V235.8z M156,193.1
	h-15.1v15.1H156V193.1z M101.4,457.1H86.2v15.1h15.2V457.1z M101.4,193.1H86.2v15.1h15.2V193.1z M46.8,542.4H31.6v15.1h15.1V542.4z
	 M101.4,235.8H86.2v15.1h15.2V235.8z M101.4,363.8H86.2v15.1h15.2V363.8z M101.4,278.5H86.2v15.1h15.2V278.5z M101.4,321.1H86.2
	v15.1h15.2V321.1z"/>
</svg>
