<svg xmlns="http://www.w3.org/2000/svg" viewBox="0 0 364 365"><defs><style>.cls-1{fill:#fff;}</style></defs><title>Asset 3</title><g id="Layer_2" data-name="Layer 2"><g id="Layer_1-2" data-name="Layer 1"><path class="cls-1" d="M259.74,199a12.48,12.48,0,0,1-6,10.68V219a6.5,6.5,0,0,1-13,0v-9.32a12.5,12.5,0,1,1,19-10.68ZM364,182v1A182,182,0,0,1,182,365h0A182,182,0,0,1,0,183v-1A182,182,0,0,1,182,0h0A182,182,0,0,1,364,182Zm-75.26-7.41a41.09,41.09,0,0,0-41.08-41.09H126a7.69,7.69,0,0,1-7.76-7,7.51,7.51,0,0,1,7.48-8h121a33,33,0,0,0-33-33h-89c-18.5,0-31,3.69-38.88,9.66A28.19,28.19,0,0,0,80.09,101l0,0a22.74,22.74,0,0,0-4.82,13.64V223.21l.5,7.9a48.39,48.39,0,0,0,48.4,48.39H237a51.74,51.74,0,0,0,51.74-51.75Z"/></g></g></svg>