<svg xmlns="http://www.w3.org/2000/svg" viewBox="0 0 1079 1922"><defs><style>.cls-1{fill:#dee6f3;}</style></defs><title>HCM-BADGEAsset 1</title><g id="Layer_2" data-name="Layer 2"><g id="Layer_1-2" data-name="Layer 1"><path class="cls-1" d="M1010,1412.77c0,9.28,5.07,15.44,10.54,19.72h-9.06v23.28h66.26v-23.28h-36c-7.22,0-11-3.92-11-9.43s3.8-9.07,11-9.07h36v-23.27h-36c-7.22,0-11-4-11-9.55s3.8-9.06,11-9.06h36v-23.27h-43.48c-15.43,0-24.26,8.57-24.26,22.66,0,9.67,4.17,16.41,10.79,22.17C1013.9,1397.22,1010,1404,1010,1412.77Zm60.88,77.9h6.84v-23H1039.6c-9.28,0-16.16,2.09-21.09,7.11-5.27,5.26-8.08,13.35-8.08,25.22a66.56,66.56,0,0,0,5.14,26.83L1032,1522a46.67,46.67,0,0,1-3.68-18.25c0-8.94,3.93-13.23,10.78-13.23h1.12a50.7,50.7,0,0,0-2.53,15.93c0,15.55,7.1,26,20.82,26h.24c12,0,19.1-8,20.24-18.93v-6.75A24.41,24.41,0,0,0,1070.85,1490.67ZM1057.38,1510h-.29c-4.9,0-8.2-3.92-8.2-10.65a24.48,24.48,0,0,1,1.68-9.07h3.12c6.62,0,10.9,4.77,10.9,11.51C1064.6,1506.59,1061.91,1510,1057.38,1510Zm-.37-226.58h-.25c-12.85,0-17.39,10.41-21.08,23.51-2.09,7-3.31,10.78-5.91,10.78h-.24c-1.84,0-3.19-1.84-3.19-5.39,0-5.26,2.33-12.73,6.12-19.59l-14.69-8a51.85,51.85,0,0,0-7.72,27.32c0,15.31,7.84,26.58,21.93,26.58h.25c13.35,0,17.76-10.41,21.19-23.52,1.95-7,3.06-10.65,5.63-10.65h.25c2.32,0,3.55,1.84,3.55,5.9,0,6.86-2.58,15.18-7.6,22.78l14.09,8.68a52.75,52.75,0,0,0,9.66-26.82v-8.69C1077.79,1292.5,1070.3,1283.44,1057,1283.44Zm11.87,281.44h8.81v-23.26H988.28v23.26h31.21c-5.06,4.41-9.56,10.29-9.56,20.34,0,15.67,13.11,29.14,34.67,29.14h.25c19.76,0,32.49-11.81,34.11-26.14V1582C1078.11,1573.93,1073.8,1569,1068.88,1564.88Zm-24.24,26.71h-.22c-8.83,0-15-6.12-15-13.6s6.25-13.49,15-13.49h.24c8.82,0,15.07,6,15.07,13.49S1053.46,1591.59,1044.64,1591.59Zm19.47-379.19L1052.85,1228c4.29,3.67,6.86,7.23,6.86,12.73,0,7.85-6.5,13.23-15.07,13.23h-.22c-8.09,0-14.71-5.51-14.71-13,0-5.64,2.53-9.19,7-12.37l-11.76-15.8c-8.94,5.64-14.82,14.7-14.82,28.3,0,20.94,15.8,35.52,34.58,35.52h.25a34.12,34.12,0,0,0,34-30v-10C1077.68,1225.12,1072,1217.74,1064.11,1212.4Zm13.6-31.47h-23.88v24.25h23.88ZM988.28,521.88h31.21c-5.06,4.41-9.56,10.29-9.56,20.34,0,15.67,13.11,29.14,34.67,29.14h.25c19.76,0,32.49-11.81,34.11-26.14V539c-.85-8-5.16-13-10.08-17.08h8.81V498.62H988.28Zm56.14-.38h.24c8.82,0,15.07,6,15.07,13.49s-6.27,13.6-15.09,13.6h-.22c-8.83,0-15-6.12-15-13.6S1035.72,521.5,1044.42,521.5Zm33.29,60.4H988.3v23.27h89.41Zm-19.22-92.47h.24c12,0,19.1-8,20.24-18.93v-6.75a24.41,24.41,0,0,0-8.12-16.08h6.84v-23H1039.6c-9.28,0-16.16,2.09-21.09,7.11-5.27,5.26-8.08,13.35-8.08,25.22a66.56,66.56,0,0,0,5.14,26.83L1032,479a46.67,46.67,0,0,1-3.68-18.25c0-8.94,3.93-13.23,10.78-13.23h1.12a50.7,50.7,0,0,0-2.53,15.93C1037.67,479,1044.77,489.43,1058.49,489.43Zm-7.92-42.13h3.12c6.62,0,10.9,4.77,10.9,11.51,0,4.78-2.68,8.21-7.21,8.21h-.29c-4.9,0-8.2-3.92-8.2-10.65A24.48,24.48,0,0,1,1050.57,447.3Zm8.65,1241.89-32.46-30.74h-15.31v60.38h18.49v-29.52l32.46,30.62h15.31v-61.48h-18.49Zm-70.92-41h89.41V1624.9H988.3Zm38.46-1032.72h-15.31v60.38h18.49V646.31l32.46,30.62h15.31V615.45h-18.49v30.74ZM933.34,972.63A104.6,104.6,0,0,0,1079,1118.3v-33.8a79.29,79.29,0,1,1,0-103.82V946.89A104.6,104.6,0,0,0,933.34,972.63ZM802.52,1862.89H815.3v-12.78H802.52Zm-92.14-36h12.78v-12.78H710.38ZM723.16,646.09H710.38v12.77h12.78ZM1057,240.44h-.25c-12.85,0-17.39,10.41-21.08,23.51-2.09,7-3.31,10.78-5.91,10.78h-.24c-1.84,0-3.19-1.84-3.19-5.39,0-5.26,2.33-12.73,6.12-19.59l-14.69-8a51.85,51.85,0,0,0-7.72,27.32c0,15.31,7.84,26.58,21.93,26.58h.25c13.35,0,17.76-10.41,21.19-23.52,1.95-7,3.06-10.65,5.63-10.65h.25c2.32,0,3.55,1.84,3.55,5.9,0,6.86-2.58,15.18-7.6,22.78l14.09,8.68a52.75,52.75,0,0,0,9.66-26.82v-8.69C1077.79,249.5,1070.3,240.44,1057,240.44Zm-292.56-71.3h4.89V152.61h16.54v-4.89H769.34V131.18h-4.89v16.54H747.92v4.89h16.53Zm-41.29,405H710.38V586.9h12.78Zm41.29,835h4.89v-16.53h16.54v-4.89H769.34v-16.54h-4.89v16.54H747.92v4.89h16.53Zm4.78-799H756.46v12.78h12.77Zm-12.77,48.75h12.77V646.09H756.46Zm-33.3-48.75H710.38v12.78h12.78ZM802.52,1826.9H815.3v-12.78H802.52Zm-24.66-197.6a75.92,75.92,0,1,0,75.92,75.92A75.92,75.92,0,0,0,777.86,1629.3Zm0,126.53a50.62,50.62,0,1,1,50.62-50.61A50.61,50.61,0,0,1,777.86,1755.83Zm-21.4,107.06h12.77v-12.78H756.46Zm-46.08,36h12.78v-12.77H710.38Zm92.14,0H815.3v-12.77H802.52Zm-46.06,0h12.77v-12.77H756.46Zm-46.08-36h12.78v-12.78H710.38Zm46.08-36h12.77v-12.78H756.46ZM769.23,574.12H756.46V586.9h12.77Zm-638.34,683H118.11v12.78h12.78Zm0-36H118.11v12.78h12.78Zm0,72H118.11v12.77h12.78Zm31.46-461.54A133.73,133.73,0,0,1,78,861.07c-3.34,0-6.73-.12-10.06-.36l-3.48,47.6c4.47.34,9,.5,13.54.5a183.48,183.48,0,0,0,114.14-40ZM84.76,1515.79H72v12.77H84.81Zm46.13-186.72H118.11v12.78h12.78ZM84.81,1443.82H72v12.78H84.81ZM72,1600.53H84.81l0-12.78H72Zm12.73-48.77H72v12.78H84.81Zm0-72H72v12.78H84.81Zm46.08,72H118.11v12.78h12.78Zm0-186.7H118.11v12.78h12.78Zm145.84-36.9h-4.89v16.54H255.3v4.89h16.54v16.53h4.89v-16.53h16.53v-4.89H276.73ZM967.15,59.53A79.13,79.13,0,0,1,939.79,0H914.44a104.47,104.47,0,0,0,44.63,85.3,104.61,104.61,0,0,0,119.93,0V51.5A79.29,79.29,0,0,1,967.15,59.53Zm-849,1541h12.78v-12.78H118.11Zm12.78-156.71H118.11v12.78h12.78ZM1077.71,137.93h-23.88v24.25h23.88ZM130.89,1479.8H118.11v12.78h12.78Zm0,36H118.11v12.77h12.78Zm-92.14-72H26v12.78H38.75Zm0-114.72H26v12.78H38.75Zm0-72H26v12.78H38.75Zm0,107.94H26v12.78H38.75Zm0-71.93H26v12.77H38.75Zm46.06,72H72v12.78H84.81Zm-46.06-144H26v12.78H38.75ZM1064.11,169.4,1052.85,185c4.29,3.67,6.86,7.23,6.86,12.73,0,7.85-6.5,13.23-15.07,13.23h-.22c-8.09,0-14.71-5.51-14.71-13,0-5.64,2.53-9.19,7-12.37l-11.76-15.8c-8.94,5.64-14.82,14.7-14.82,28.3,0,20.94,15.8,35.52,34.58,35.52h.25a34.12,34.12,0,0,0,34-30v-10C1077.68,182.12,1072,174.74,1064.11,169.4ZM47.93,857.73A134.88,134.88,0,0,1,0,836.36v55.06a182.93,182.93,0,0,0,37.39,12.87Zm962-488c0,9.28,5.07,15.44,10.54,19.72h-9.06v23.28h66.26V389.49h-36c-7.22,0-11-3.92-11-9.43s3.8-9.07,11-9.07h36V347.72h-36c-7.22,0-11-4-11-9.55s3.8-9.06,11-9.06h36V305.84h-43.48c-15.43,0-24.26,8.57-24.26,22.66,0,9.67,4.17,16.41,10.79,22.17C1013.9,354.22,1010,361,1010,369.77ZM84.81,1221.13H72v12.78H84.81Zm0,72H72v12.77H84.81Zm0-36H72v12.78H84.81Zm0,72H72v12.78H84.81ZM38.75,1551.76H26v12.78H38.75Zm0-36H26v12.77H38.75Zm0-36H26v12.78H38.75ZM26,1600.53H38.75v-12.78H26Zm318.58-355.68,22.77,11a71.64,71.64,0,0,1,38.39-35.7l-9.28-23.54A97,97,0,0,0,344.55,1244.85ZM130.89,53.1H118.11V65.87h12.78Zm0,36H118.11v12.78h12.78Zm0,114.75H118.11V216.6h12.78Zm0-186.71H118.11V29.89h12.78Zm0,108H118.11v12.78h12.78ZM84.81,239.8H72v12.78H84.81Zm0,36H72v12.77H84.81Zm0,72H72v12.78H84.81Zm0-36H72v12.78H84.81ZM527.9,32.17A96.57,96.57,0,0,0,517,0H486.3a71.43,71.43,0,0,1,16.58,36Zm-251.17,56h-4.89V104.7H255.3v4.89h16.54v16.53h4.89V109.59h16.53V104.7H276.73ZM377.69,0H347.06c-.87,1.59-1.72,3.2-2.51,4.85l22.77,11A72,72,0,0,1,377.69,0Zm-166,705.34,47.19-7.16a182.26,182.26,0,0,0-67-115.54L162.13,620A134.65,134.65,0,0,1,211.68,705.34ZM84.81,203.82H72V216.6H84.81Zm46.08,72H118.11v12.77h12.78Zm0,36H118.11v12.78h12.78ZM503.72,46.83A71.51,71.51,0,0,1,484.6,95.59l18.56,17.2a96.74,96.74,0,0,0,25.87-66v-.19H503.72ZM130.89,347.75H118.11v12.78h12.78Zm0-107.95H118.11v12.78h12.78ZM815.3,610.11H802.52v12.78H815.3Zm-730.49-485H72v12.78H84.81Zm-46.06-72H26V65.87H38.75Zm0,36H26v12.78H38.75ZM37.08,547.46,47.74,594A136.6,136.6,0,0,1,78,590.6a135.22,135.22,0,0,1,67.38,17.94l23.87-41.36A183.51,183.51,0,0,0,37.08,547.46ZM38.75,125H26v12.78H38.75ZM84.49,1679.91A195.68,195.68,0,0,0,0,1699v223H275.72a197.38,197.38,0,0,0,5.31-45.55C281,1767.91,193,1679.91,84.49,1679.91ZM261,725.83v-.36H213.27v.36a134.88,134.88,0,0,1-36.07,92l35,32.45A182.39,182.39,0,0,0,261,725.83ZM38.75,17.09H26V29.87H38.75Zm46.06,36H72V65.89H84.81Zm0-36H72V29.89H84.81ZM38.75,311.76H26v12.78H38.75Zm0-108H26v12.78H38.75ZM84.81,89.1H72v12.78H84.81ZM38.75,347.75H26v12.78H38.75Zm0-107.95H26v12.78H38.75Zm0,36H26v12.77H38.75ZM10.89,555.59Q5.36,557.78,0,560.31v55A134.91,134.91,0,0,1,28.4,600Zm518.22,307h12.78V849.79H529.11Zm0-36h12.78V813.8H529.11Zm0,107.95h12.78V921.75H529.11Zm0-143.93h12.78V777.82H529.11Zm-37.28,721.45v-16.53h16.53v-4.9H491.83v-16.53h-4.9v16.53H470.4v4.9h16.53v16.53ZM351.89,101.56a96.8,96.8,0,0,0,58.59,39.88l5.58-24.68a71.51,71.51,0,0,1-43.25-29.49ZM367.43,78a71,71,0,0,1-7.11-31.16,71.79,71.79,0,0,1,3.14-21.09l-24.23-7.38A97.35,97.35,0,0,0,344.65,89ZM529.11,898.54h12.78V885.76H529.11Zm-18.73,859h-4.89v16.54H489v4.89h16.53v16.53h4.89v-16.53h16.54v-4.89H510.38ZM848.59,622.89h12.78V610.11H848.59Zm0,1276h12.78v-12.77H848.59ZM815.3,646.09H802.52v12.77H815.3Zm33.29-59.19h12.78V574.12H848.59Zm0,1276h12.78v-12.78H848.59ZM815.3,574.12H802.52V586.9H815.3Zm-455,712.71a71.79,71.79,0,0,1,3.14-21.09l-24.23-7.38a97.35,97.35,0,0,0,5.42,70.65l22.78-11A71,71,0,0,1,360.32,1286.83Zm488.27-628h12.78V646.09H848.59Zm0,1168h12.78v-12.78H848.59ZM437,826.58h12.78V813.8H437Zm0,72h12.78V885.76H437Zm54.86-664.45h-4.9v16.53H470.4v4.9h16.53v16.53h4.9V255.52h16.53v-4.9H491.83ZM437,862.56h12.78V849.79H437Zm55.57-739.91-15.81-19.77A70.91,70.91,0,0,1,432,118.53c-1.77,0-3.57-.07-5.33-.19l-1.85,25.23c2.37.18,4.79.27,7.18.27A97.34,97.34,0,0,0,492.54,122.65ZM437,934.53h12.78V921.75H437Zm66.75,352.3a71.51,71.51,0,0,1-19.12,48.76l18.56,17.2a96.74,96.74,0,0,0,25.87-66v-.19H503.72Zm-27,56.05A70.91,70.91,0,0,1,432,1358.53c-1.77,0-3.57-.07-5.33-.19l-1.85,25.23c2.37.18,4.79.27,7.18.27a97.34,97.34,0,0,0,60.52-21.19Zm-27-565.09H437v12.78h12.78ZM483,826.58h12.78V813.8H483Zm12.78-48.76H483V790.6h12.78Zm9.68-260.31v16.54H489v4.89h16.53v16.53h4.89V538.94h16.54v-4.89H510.38V517.51ZM372.81,1327.27l-20.92,14.29a96.8,96.8,0,0,0,58.59,39.88l5.58-24.68A71.51,71.51,0,0,1,372.81,1327.27Zm37.5-135,5.65,24.67a72,72,0,0,1,51.78,7.72l12.66-21.93A97.26,97.26,0,0,0,410.31,1192.26ZM502.88,1276l25-3.8a96.67,96.67,0,0,0-35.54-61.26l-15.75,19.81A71.4,71.4,0,0,1,502.88,1276ZM483,934.53h12.78l-.05-12.78H483Zm0-72h12.78l-.05-12.77H483Zm0,36h12.78l-.05-12.78H483Z"/></g></g></svg>