<svg xmlns="http://www.w3.org/2000/svg" viewBox="0 0 366 366"><defs><style>.cls-1{fill:#fff;}</style></defs><title>Asset 1</title><g id="Layer_2" data-name="Layer 2"><g id="Layer_1-2" data-name="Layer 1"><path class="cls-1" d="M258.25,183A75.25,75.25,0,1,1,183,107.75,75.25,75.25,0,0,1,258.25,183ZM183,107.75A75.25,75.25,0,1,0,258.25,183,75.25,75.25,0,0,0,183,107.75Zm0,0A75.25,75.25,0,1,0,258.25,183,75.25,75.25,0,0,0,183,107.75ZM366,183c0,101.06-81.94,183-183,183S0,284.06,0,183,81.94,0,183,0,366,81.94,366,183Zm-65,0A118,118,0,1,0,183,301,118,118,0,0,0,301,183Z"/></g></g></svg>